<?xml version="1.0" standalone="no"?><!DOCTYPE svg PUBLIC "-//W3C//DTD SVG 1.1//EN" "http://www.w3.org/Graphics/SVG/1.1/DTD/svg11.dtd"><svg t="1583326596817" class="icon" viewBox="0 0 1024 1024" version="1.1" xmlns="http://www.w3.org/2000/svg" p-id="5257" xmlns:xlink="http://www.w3.org/1999/xlink" width="400" height="400"><defs><style type="text/css"></style></defs><path d="M270.222222 853.333333m-56.888889 0a56.888889 56.888889 0 1 0 113.777778 0 56.888889 56.888889 0 1 0-113.777778 0Z" fill="#FF8F3D" p-id="5258"></path><path d="M753.777778 853.333333m-56.888889 0a56.888889 56.888889 0 1 0 113.777778 0 56.888889 56.888889 0 1 0-113.777778 0Z" fill="#FF8F3D" p-id="5259"></path><path d="M512 113.777778a184.888889 184.888889 0 1 1-184.888889 184.888889A184.888889 184.888889 0 0 1 512 113.777778z m0 56.888889a128 128 0 1 0 128 128 128 128 0 0 0-128-128z" fill="#FF9C54" p-id="5260"></path><path d="M99.555556 256m85.333333 0l654.222222 0q85.333333 0 85.333333 85.333333l0 426.666667q0 85.333333-85.333333 85.333333l-654.222222 0q-85.333333 0-85.333333-85.333333l0-426.666667q0-85.333333 85.333333-85.333333Z" fill="#FF9A4F" p-id="5261"></path><path d="M583.111111 444.728889c-28.444444 0-54.186667 26.311111-71.111111 46.08-17.208889-19.768889-42.666667-46.08-71.111111-46.08a88.888889 88.888889 0 0 0-91.875556 85.333333 103.395556 103.395556 0 0 0 26.595556 63.431111c34.275556 46.506667 120.888889 103.395556 124.586667 105.528889a21.333333 21.333333 0 0 0 23.608888 0c3.697778-2.417778 90.311111-59.591111 124.871112-105.528889a103.395556 103.395556 0 0 0 26.595555-63.431111 88.888889 88.888889 0 0 0-91.875555-85.333333z" fill="#FFE4BA" p-id="5262"></path><path d="M113.777778 739.555556a85.333333 85.333333 0 0 1 80.497778 113.777777H184.888889a85.333333 85.333333 0 0 1-85.333333-85.333333v-27.306667A92.871111 92.871111 0 0 1 113.777778 739.555556zM910.222222 739.555556a92.871111 92.871111 0 0 1 14.222222 1.137777V768a85.333333 85.333333 0 0 1-85.333333 85.333333h-9.386667A85.333333 85.333333 0 0 1 910.222222 739.555556zM194.275556 256A85.333333 85.333333 0 0 1 113.777778 369.777778a92.871111 92.871111 0 0 1-14.222222-1.137778V341.333333a85.333333 85.333333 0 0 1 85.333333-85.333333zM839.111111 256a85.333333 85.333333 0 0 1 85.333333 85.333333v27.306667a92.871111 92.871111 0 0 1-14.222222 1.137778 85.333333 85.333333 0 0 1-80.497778-113.777778z" fill="#FFD491" p-id="5263"></path></svg>