<?xml version="1.0" standalone="no"?><!DOCTYPE svg PUBLIC "-//W3C//DTD SVG 1.1//EN" "http://www.w3.org/Graphics/SVG/1.1/DTD/svg11.dtd"><svg t="1583326590961" class="icon" viewBox="0 0 1024 1024" version="1.1" xmlns="http://www.w3.org/2000/svg" p-id="4975" xmlns:xlink="http://www.w3.org/1999/xlink" width="400" height="400"><defs><style type="text/css"></style></defs><path d="M312.888889 597.333333h398.222222a213.333333 213.333333 0 0 1 213.333333 213.333334v71.111111H99.555556v-71.111111a213.333333 213.333333 0 0 1 213.333333-213.333334z" fill="#FF9C54" p-id="4976"></path><path d="M668.444444 583.111111H355.555556V344.177778a234.666667 234.666667 0 0 1 312.888888 0zM512 184.888889a156.444444 156.444444 0 0 1 156.444444 142.933333 239.786667 239.786667 0 0 0-312.888888 0A156.444444 156.444444 0 0 1 512 184.888889z" fill="#FF8F3D" p-id="4977"></path><path d="M512 327.111111a312.888889 312.888889 0 0 1 312.888889 312.888889v241.777778H199.111111V640a312.888889 312.888889 0 0 1 312.888889-312.888889z" fill="#FFD491" p-id="4978"></path><path d="M512 625.777778a71.111111 71.111111 0 0 1 71.111111 71.111111v184.888889H440.888889V696.888889a71.111111 71.111111 0 0 1 71.111111-71.111111zM512 128a14.222222 14.222222 0 0 1 14.222222 14.222222v56.888889a14.222222 14.222222 0 0 1-14.222222 14.222222 14.222222 14.222222 0 0 1-14.222222-14.222222v-56.888889a14.222222 14.222222 0 0 1 14.222222-14.222222z" fill="#FF8F3D" p-id="4979"></path><path d="M99.555556 853.333333h824.888888a14.222222 14.222222 0 0 1 14.222223 14.222223 14.222222 14.222222 0 0 1-14.222223 14.222222H99.555556a14.222222 14.222222 0 0 1-14.222223-14.222222 14.222222 14.222222 0 0 1 14.222223-14.222223z" fill="#FFEAC9" p-id="4980"></path></svg>