<?xml version="1.0" standalone="no"?><!DOCTYPE svg PUBLIC "-//W3C//DTD SVG 1.1//EN" "http://www.w3.org/Graphics/SVG/1.1/DTD/svg11.dtd"><svg t="1583326560448" class="icon" viewBox="0 0 1024 1024" version="1.1" xmlns="http://www.w3.org/2000/svg" p-id="4550" xmlns:xlink="http://www.w3.org/1999/xlink" width="400" height="400"><defs><style type="text/css"></style></defs><path d="M239.672889 888.405333l39.509333-224.099555 28.017778 4.935111-39.523556 224.099555z" fill="#E8D8FF" p-id="4551"></path><path d="M202.524444 853.333333l112.071112 19.768889a14.222222 14.222222 0 0 1 11.52 16.497778 14.222222 14.222222 0 0 1-16.497778 11.52l-112.071111-19.768889a14.222222 14.222222 0 0 1-11.52-16.497778 14.222222 14.222222 0 0 1 16.497777-11.52zM275.911111 187.164444l197.404445 34.702223a28.444444 28.444444 0 0 1 23.182222 32.284444l-59.448889 394.666667a138.666667 138.666667 0 0 1-157.724445 116.48h-3.413333a138.808889 138.808889 0 0 1-112.64-160.711111v-3.413334l79.075556-391.111111a28.444444 28.444444 0 0 1 33.564444-22.897778z" fill="#E8D8FF" p-id="4552"></path><path d="M442.88 575.146667l4.408889 5.688889-10.24 67.982222a138.666667 138.666667 0 0 1-157.724445 116.48h-3.413333a138.808889 138.808889 0 0 1-112.64-160.711111v-3.413334l13.368889-66.417777a108.231111 108.231111 0 0 0 110.364444 18.773333l31.004445-13.084445a107.662222 107.662222 0 0 1 124.871111 34.702223z" fill="#A68BF6" p-id="4553"></path><path d="M716.842667 669.269333l28.017777-4.935111 39.509334 224.099556-28.017778 4.935111z" fill="#E8D8FF" p-id="4554"></path><path d="M709.404444 872.675556L821.475556 853.333333a14.222222 14.222222 0 0 1 16.497777 11.52 14.222222 14.222222 0 0 1-11.52 16.497778l-112.071111 19.768889a14.222222 14.222222 0 0 1-16.497778-11.52 14.222222 14.222222 0 0 1 11.52-16.924444zM550.684444 221.866667l197.404445-34.702223a28.444444 28.444444 0 0 1 32.853333 22.328889l79.075556 391.111111a138.808889 138.808889 0 0 1-108.515556 163.555556h-3.413333a138.524444 138.524444 0 0 1-160.568889-112.497778 28.444444 28.444444 0 0 1 0-3.413333l-60.017778-394.097778a28.444444 28.444444 0 0 1 23.182222-32.284444z" fill="#E8D8FF" p-id="4555"></path><path d="M840.248889 529.493333l6.115555 3.84 14.222223 67.271111a138.808889 138.808889 0 0 1-108.515556 163.555556h-3.413333a138.524444 138.524444 0 0 1-160.568889-112.497778 28.444444 28.444444 0 0 1 0-3.413333l-10.097778-67.128889a107.235556 107.235556 0 0 0 109.937778-20.053333L711.111111 540.444444a107.662222 107.662222 0 0 1 129.137778-10.951111z" fill="#A68BF6" p-id="4556"></path><path d="M559.502222 71.111111c-15.928889 0-30.72 14.222222-40.391111 25.457778C509.44 85.333333 494.648889 71.111111 478.72 71.111111A49.777778 49.777778 0 0 0 426.666667 118.186667a56.888889 56.888889 0 0 0 15.075555 34.986666 351.857778 351.857778 0 0 0 71.111111 58.168889 12.231111 12.231111 0 0 0 13.368889 0 351.857778 351.857778 0 0 0 71.111111-58.168889 56.888889 56.888889 0 0 0 14.222223-34.986666A49.777778 49.777778 0 0 0 559.502222 71.111111z" fill="#A68BF6" p-id="4557"></path></svg>