<?xml version="1.0" standalone="no"?><!DOCTYPE svg PUBLIC "-//W3C//DTD SVG 1.1//EN" "http://www.w3.org/Graphics/SVG/1.1/DTD/svg11.dtd"><svg t="1583326585553" class="icon" viewBox="0 0 1024 1024" version="1.1" xmlns="http://www.w3.org/2000/svg" p-id="4832" xmlns:xlink="http://www.w3.org/1999/xlink" width="400" height="400"><defs><style type="text/css"></style></defs><path d="M554.666667 113.777778h85.333333v42.666666h-85.333333z" fill="#A68BF6" p-id="4833"></path><path d="M483.555556 270.222222a369.777778 369.777778 0 0 1 142.222222 711.111111H341.333333a369.777778 369.777778 0 0 1 142.222223-711.111111z" fill="#D5B7FF" p-id="4834"></path><path d="M551.964444 526.222222c-26.88 0-51.911111 26.168889-68.408888 45.653334-16.497778-19.484444-41.528889-45.653333-68.408889-45.653334A86.471111 86.471111 0 0 0 327.111111 611.555556a104.391111 104.391111 0 0 0 25.457778 63.146666c33.137778 45.653333 116.195556 102.4 119.608889 104.817778a20.48 20.48 0 0 0 11.377778 2.702222 19.768889 19.768889 0 0 0 11.235555-3.413333c3.555556-2.417778 86.613333-59.164444 119.751111-104.817778A104.391111 104.391111 0 0 0 640 611.555556a86.471111 86.471111 0 0 0-88.035556-85.333334z" fill="#F4EDFF" p-id="4835"></path><path d="M440.888889 184.888889h85.333333l28.444445 71.111111H412.444444l28.444445-71.111111z" fill="#A68BF6" p-id="4836"></path><path d="M371.768889 241.777778h223.573333A44.8 44.8 0 0 1 640 286.435556v35.84a12.231111 12.231111 0 0 1-8.533333 11.52A521.813333 521.813333 0 0 1 483.555556 355.555556a521.813333 521.813333 0 0 1-147.911112-21.76 12.231111 12.231111 0 0 1-8.533333-11.52v-35.84A44.8 44.8 0 0 1 371.768889 241.777778z" fill="#A68BF6" p-id="4837"></path><path d="M483.555556 128m-99.555556 0a99.555556 99.555556 0 1 0 199.111111 0 99.555556 99.555556 0 1 0-199.111111 0Z" fill="#D5B7FF" p-id="4838"></path><path d="M611.555556 128a149.333333 99.555556 0 1 0 298.666666 0 149.333333 99.555556 0 1 0-298.666666 0Z" fill="#D5B7FF" p-id="4839"></path></svg>