<?xml version="1.0" standalone="no"?><!DOCTYPE svg PUBLIC "-//W3C//DTD SVG 1.1//EN" "http://www.w3.org/Graphics/SVG/1.1/DTD/svg11.dtd"><svg t="1583326601805" class="icon" viewBox="0 0 1024 1024" version="1.1" xmlns="http://www.w3.org/2000/svg" p-id="5399" xmlns:xlink="http://www.w3.org/1999/xlink" width="400" height="400"><defs><style type="text/css"></style></defs><path d="M522.951111 696.888889q266.24-167.68 266.24-310.755556c0-71.111111-131.271111 4.551111-266.24 0C384 381.44 241.777778 317.44 241.777778 389.831111Q241.777778 532.764444 522.951111 696.888889z" fill="#FF7DBB" p-id="5400"></path><path d="M298.666667 156.444444c33.991111-45.226667 119.466667-34.844444 191.004444 23.324445A272.213333 272.213333 0 0 1 512 200.391111a277.617778 277.617778 0 0 1 22.186667-20.195555c71.111111-58.168889 156.444444-68.551111 191.004444-23.324445s3.555556 129.28-67.84 187.591111l2.702222-2.275555V440.888889H360.391111v-102.115556C293.12 280.888889 265.244444 200.248889 298.666667 156.444444z" fill="#FFCFE7" p-id="5401"></path><path d="M924.444444 757.76C924.444444 535.608889 739.555556 355.555556 512 355.555556S99.555556 535.608889 99.555556 757.76s824.888889 222.293333 824.888888 0z" fill="#FFD9EC" p-id="5402"></path><path d="M512 355.555556h3.697778C640 360.106667 739.555556 587.662222 739.555556 867.555556v32a1050.311111 1050.311111 0 0 1-454.257778 0V867.555556c0-282.737778 101.831111-512 227.555555-512z" fill="#FFC1DF" p-id="5403"></path></svg>