<?xml version="1.0" standalone="no"?><!DOCTYPE svg PUBLIC "-//W3C//DTD SVG 1.1//EN" "http://www.w3.org/Graphics/SVG/1.1/DTD/svg11.dtd"><svg t="1583326594192" class="icon" viewBox="0 0 1024 1024" version="1.1" xmlns="http://www.w3.org/2000/svg" p-id="5116" xmlns:xlink="http://www.w3.org/1999/xlink" width="400" height="400"><defs><style type="text/css"></style></defs><path d="M84.857145 657.515957m19.457146-53.458069l165.38574-454.393588q19.457146-53.458069 72.915215-34.000923l400.935518 145.928595q53.458069 19.457146 34.000923 72.915215l-165.38574 454.393587q-19.457146 53.458069-72.915215 34.000923l-400.935518-145.928594q-53.458069-19.457146-34.000923-72.915215Z" fill="#69DEFF" p-id="5117"></path><path d="M138.268444 510.549333l150.784-414.293333 507.861334 184.832-150.798222 414.293333z" fill="#D5F6FF" p-id="5118"></path><path d="M355.555556 284.444444m56.888888 0l483.555556 0q56.888889 0 56.888889 56.888889l0 540.444445q0 56.888889-56.888889 56.888889l-483.555556 0q-56.888889 0-56.888888-56.888889l0-540.444445q0-56.888889 56.888888-56.888889Z" fill="#14CFFF" p-id="5119"></path><path d="M355.555556 284.444444h597.333333v512H355.555556z" fill="#8CE6FF" p-id="5120"></path><path d="M722.631111 426.666667c-26.88 0-51.911111 26.168889-68.408889 45.653333-16.497778-19.484444-41.528889-45.653333-68.408889-45.653333A86.471111 86.471111 0 0 0 497.777778 512a104.391111 104.391111 0 0 0 25.457778 63.146667c33.137778 45.653333 116.195556 102.4 119.608888 104.817777a20.48 20.48 0 0 0 11.377778 2.702223 19.768889 19.768889 0 0 0 11.235556-3.413334c3.555556-2.417778 86.613333-59.164444 119.751111-104.817777A104.391111 104.391111 0 0 0 810.666667 512a86.471111 86.471111 0 0 0-88.035556-85.333333z" fill="#E5F9FF" p-id="5121"></path></svg>